HIERARCHY
ROOT newVegas:Hips
{
	OFFSET 0.000000 96.479958 0.000000
	CHANNELS 6 Xposition Yposition Zposition Xrotation Yrotation Zrotation
	JOINT newVegas:Pelvis
	{
		OFFSET 0.000000 0.000000 0.000000
		CHANNELS 3 Xrotation Yrotation Zrotation
		JOINT newVegas:LeftUpLeg
		{
			OFFSET 18.735201 -5.666702 -4.541200
			CHANNELS 3 Xrotation Yrotation Zrotation
			JOINT newVegas:LeftLeg
			{
				OFFSET -0.021200 -31.938179 0.493100
				CHANNELS 3 Xrotation Yrotation Zrotation
				JOINT newVegas:LeftFoot
				{
					OFFSET 0.021200 -31.938179 -4.336299
					CHANNELS 3 Xrotation Yrotation Zrotation
					JOINT newVegas:LeftToeBase
					{
						OFFSET 0.943001 -26.722000 15.023500
						CHANNELS 3 Xrotation Yrotation Zrotation
						End Site
						{
							OFFSET 0.000000 30.670183 0.000000
						}
					}
				}
				JOINT newVegas:Left_PantLeg
				{
					OFFSET 0.663870 -9.044666 -1.108900
					CHANNELS 3 Xrotation Yrotation Zrotation
					End Site
					{
						OFFSET 1.415995 20.635357 0.000000
					}
				}
			}
		}
		JOINT newVegas:RightUpLeg
		{
			OFFSET -18.735201 -5.666702 -4.541200
			CHANNELS 3 Xrotation Yrotation Zrotation
			JOINT newVegas:RightLeg
			{
				OFFSET 0.018946 -31.938133 0.493100
				CHANNELS 3 Xrotation Yrotation Zrotation
				JOINT newVegas:RightFoot
				{
					OFFSET -0.018946 -31.938126 -4.336299
					CHANNELS 3 Xrotation Yrotation Zrotation
					JOINT newVegas:RightToeBase
					{
						OFFSET -0.943001 -26.722004 15.023500
						CHANNELS 3 Xrotation Yrotation Zrotation
						End Site
						{
							OFFSET 0.000000 30.670187 0.000000
						}
					}
				}
				JOINT newVegas:Right_PantLeg
				{
					OFFSET -0.661674 -9.044716 -1.108900
					CHANNELS 3 Xrotation Yrotation Zrotation
					End Site
					{
						OFFSET -1.415958 20.635269 0.000000
					}
				}
			}
		}
	}
	JOINT newVegas:Spine
	{
		OFFSET 0.000000 10.199997 -0.299500
		CHANNELS 3 Xrotation Yrotation Zrotation
		JOINT newVegas:Spine1
		{
			OFFSET 0.000000 11.900002 -1.516600
			CHANNELS 3 Xrotation Yrotation Zrotation
			JOINT newVegas:Spine2
			{
				OFFSET 0.000000 13.600006 -2.842500
				CHANNELS 3 Xrotation Yrotation Zrotation
				JOINT newVegas:Neck
				{
					OFFSET 0.000000 9.624100 -2.890100
					CHANNELS 3 Xrotation Yrotation Zrotation
					JOINT newVegas:Head
					{
						OFFSET 0.000000 14.068802 -1.351900
						CHANNELS 3 Xrotation Yrotation Zrotation
						JOINT newVegas:Hair_Back
						{
							OFFSET 0.000000 3.231903 -17.524799
							CHANNELS 3 Xrotation Yrotation Zrotation
							End Site
							{
								OFFSET 0.000000 19.849884 0.000000
							}
						}
						JOINT newVegas:Hair_Front
						{
							OFFSET 0.000000 31.260406 4.573800
							CHANNELS 3 Xrotation Yrotation Zrotation
							JOINT newVegas:Hair_Front1
							{
								OFFSET 0.000000 2.284103 11.993300
								CHANNELS 3 Xrotation Yrotation Zrotation
								JOINT newVegas:Hair_Front2
								{
									OFFSET 0.000000 2.284103 11.993300
									CHANNELS 3 Xrotation Yrotation Zrotation
									End Site
									{
										OFFSET 0.000000 12.208862 0.000000
									}
								}
							}
						}
						JOINT newVegas:Jowel
						{
							OFFSET 0.000000 -7.458206 6.864100
							CHANNELS 3 Xrotation Yrotation Zrotation
							End Site
							{
								OFFSET 0.000000 19.849884 0.000000
							}
						}
					}
				}
				JOINT newVegas:LeftShoulder
				{
					OFFSET 15.263000 10.923401 -0.547700
					CHANNELS 3 Xrotation Yrotation Zrotation
					JOINT newVegas:LeftArm
					{
						OFFSET 25.438599 -2.830597 -13.032500
						CHANNELS 3 Xrotation Yrotation Zrotation
						JOINT newVegas:LeftForeArm
						{
							OFFSET 29.960503 0.000000 0.000000
							CHANNELS 3 Xrotation Yrotation Zrotation
							JOINT newVegas:LeftHand
							{
								OFFSET 27.849251 0.000000 0.000000
								CHANNELS 3 Xrotation Yrotation Zrotation
								JOINT newVegas:LeftHandThumb1
								{
									OFFSET 4.487587 -3.305161 6.305391
									CHANNELS 3 Xrotation Yrotation Zrotation
									JOINT newVegas:LeftHandThumb2
									{
										OFFSET 5.480453 -3.164139 3.164143
										CHANNELS 3 Xrotation Yrotation Zrotation
										JOINT newVegas:LeftHandThumb3
										{
											OFFSET 5.159721 -2.978973 2.978967
											CHANNELS 3 Xrotation Yrotation Zrotation
											End Site
											{
												OFFSET 2.494507 5.926697 1.738678
											}
										}
									}
								}
								JOINT newVegas:LeftHandIndex1
								{
									OFFSET 18.578728 -0.527832 5.208049
									CHANNELS 3 Xrotation Yrotation Zrotation
									JOINT newVegas:LeftHandIndex2
									{
										OFFSET 3.192009 0.000000 0.000000
										CHANNELS 3 Xrotation Yrotation Zrotation
										JOINT newVegas:LeftHandIndex3
										{
											OFFSET 3.835129 0.000000 0.000000
											CHANNELS 3 Xrotation Yrotation Zrotation
											End Site
											{
												OFFSET -0.034599 3.816971 0.371180
											}
										}
									}
								}
								JOINT newVegas:LeftHandMiddle1
								{
									OFFSET 18.476105 0.000000 0.000000
									CHANNELS 3 Xrotation Yrotation Zrotation
									JOINT newVegas:LeftHandMiddle2
									{
										OFFSET 3.324875 0.000000 0.000000
										CHANNELS 3 Xrotation Yrotation Zrotation
										JOINT newVegas:LeftHandMiddle3
										{
											OFFSET 4.596550 0.000000 0.000000
											CHANNELS 3 Xrotation Yrotation Zrotation
											End Site
											{
												OFFSET 0.057701 4.578827 0.399218
											}
										}
									}
								}
								JOINT newVegas:LeftHandRing1
								{
									OFFSET 17.732719 0.121887 -4.201567
									CHANNELS 3 Xrotation Yrotation Zrotation
									JOINT newVegas:LeftHandRing2
									{
										OFFSET 2.733170 0.000000 0.000000
										CHANNELS 3 Xrotation Yrotation Zrotation
										JOINT newVegas:LeftHandRing3
										{
											OFFSET 3.178268 0.000000 0.000000
											CHANNELS 3 Xrotation Yrotation Zrotation
											End Site
											{
												OFFSET 0.119102 3.170624 0.185394
											}
										}
									}
								}
								JOINT newVegas:LeftHandPinky1
								{
									OFFSET 15.989624 -0.606689 -7.535461
									CHANNELS 3 Xrotation Yrotation Zrotation
									JOINT newVegas:LeftHandPinky2
									{
										OFFSET 2.538986 0.000000 0.000000
										CHANNELS 3 Xrotation Yrotation Zrotation
										JOINT newVegas:LeftHandPinky3
										{
											OFFSET 2.593102 0.000000 0.000000
											CHANNELS 3 Xrotation Yrotation Zrotation
											End Site
											{
												OFFSET -0.150902 2.584198 0.152708
											}
										}
									}
								}
							}
							JOINT newVegas:Left_Sleeve
							{
								OFFSET 0.267448 -0.649796 0.577675
								CHANNELS 3 Xrotation Yrotation Zrotation
								End Site
								{
									OFFSET 0.000000 15.991241 0.000000
								}
							}
							JOINT newVegas:Left_CapeC
							{
								OFFSET 15.715958 -8.608795 -6.935905
								CHANNELS 3 Xrotation Yrotation Zrotation
								JOINT newVegas:Left_CapeC1
								{
									OFFSET 0.000000 -8.688499 0.000000
									CHANNELS 3 Xrotation Yrotation Zrotation
									End Site
									{
										OFFSET 0.000000 8.688499 0.000000
									}
								}
							}
						}
						JOINT newVegas:Left_CapeB
						{
							OFFSET 26.118385 -8.608795 -7.079235
							CHANNELS 3 Xrotation Yrotation Zrotation
							JOINT newVegas:Left_CapeB1
							{
								OFFSET 0.000000 -8.688499 0.000000
								CHANNELS 3 Xrotation Yrotation Zrotation
								End Site
								{
									OFFSET 0.000000 8.688499 0.000000
								}
							}
						}
						JOINT newVegas:Left_CapeA
						{
							OFFSET 5.115639 -8.608795 -10.395809
							CHANNELS 3 Xrotation Yrotation Zrotation
							JOINT newVegas:Left_CapeA1
							{
								OFFSET 0.000000 -8.688499 0.000000
								CHANNELS 3 Xrotation Yrotation Zrotation
								End Site
								{
									OFFSET 0.000000 8.688499 0.000000
								}
							}
						}
					}
				}
				JOINT newVegas:RightShoulder
				{
					OFFSET -15.263000 10.923401 -0.547700
					CHANNELS 3 Xrotation Yrotation Zrotation
					JOINT newVegas:RightArm
					{
						OFFSET -25.438599 -2.830597 -13.032500
						CHANNELS 3 Xrotation Yrotation Zrotation
						JOINT newVegas:RightForeArm
						{
							OFFSET -29.960503 0.000000 0.000000
							CHANNELS 3 Xrotation Yrotation Zrotation
							JOINT newVegas:RightHand
							{
								OFFSET -27.849251 0.000000 0.000000
								CHANNELS 3 Xrotation Yrotation Zrotation
								JOINT newVegas:RightHandThumb1
								{
									OFFSET -4.487587 -3.305161 6.305391
									CHANNELS 3 Xrotation Yrotation Zrotation
									JOINT newVegas:RightHandThumb2
									{
										OFFSET -5.480453 -3.164139 3.164143
										CHANNELS 3 Xrotation Yrotation Zrotation
										JOINT newVegas:RightHandThumb3
										{
											OFFSET -5.159721 -2.978973 2.978967
											CHANNELS 3 Xrotation Yrotation Zrotation
											End Site
											{
												OFFSET -2.494507 5.926697 1.738678
											}
										}
									}
								}
								JOINT newVegas:RightHandIndex1
								{
									OFFSET -18.578728 -0.527832 5.208049
									CHANNELS 3 Xrotation Yrotation Zrotation
									JOINT newVegas:RightHandIndex2
									{
										OFFSET -3.192009 0.000000 0.000000
										CHANNELS 3 Xrotation Yrotation Zrotation
										JOINT newVegas:RightHandIndex3
										{
											OFFSET -3.835129 0.000000 0.000000
											CHANNELS 3 Xrotation Yrotation Zrotation
											End Site
											{
												OFFSET 0.034599 3.816971 0.371180
											}
										}
									}
								}
								JOINT newVegas:RightHandMiddle1
								{
									OFFSET -18.476105 0.000000 0.000000
									CHANNELS 3 Xrotation Yrotation Zrotation
									JOINT newVegas:RightHandMiddle2
									{
										OFFSET -3.324875 0.000000 0.000000
										CHANNELS 3 Xrotation Yrotation Zrotation
										JOINT newVegas:RightHandMiddle3
										{
											OFFSET -4.596550 0.000000 0.000000
											CHANNELS 3 Xrotation Yrotation Zrotation
											End Site
											{
												OFFSET -0.057701 4.578827 0.399218
											}
										}
									}
								}
								JOINT newVegas:RightHandRing1
								{
									OFFSET -17.732719 0.121887 -4.201567
									CHANNELS 3 Xrotation Yrotation Zrotation
									JOINT newVegas:RightHandRing2
									{
										OFFSET -2.733170 0.000000 0.000000
										CHANNELS 3 Xrotation Yrotation Zrotation
										JOINT newVegas:RightHandRing3
										{
											OFFSET -3.178268 0.000000 0.000000
											CHANNELS 3 Xrotation Yrotation Zrotation
											End Site
											{
												OFFSET -0.119102 3.170624 0.185394
											}
										}
									}
								}
								JOINT newVegas:RightHandPinky1
								{
									OFFSET -15.989624 -0.606689 -7.535461
									CHANNELS 3 Xrotation Yrotation Zrotation
									JOINT newVegas:RightHandPinky2
									{
										OFFSET -2.538986 0.000000 0.000000
										CHANNELS 3 Xrotation Yrotation Zrotation
										JOINT newVegas:RightHandPinky3
										{
											OFFSET -2.593102 0.000000 0.000000
											CHANNELS 3 Xrotation Yrotation Zrotation
											End Site
											{
												OFFSET 0.150902 2.584198 0.152708
											}
										}
									}
								}
							}
							JOINT newVegas:Right_CapeC
							{
								OFFSET -15.715958 -8.608795 -6.935905
								CHANNELS 3 Xrotation Yrotation Zrotation
								JOINT newVegas:Right_CapeC1
								{
									OFFSET 0.000000 -8.688499 0.000000
									CHANNELS 3 Xrotation Yrotation Zrotation
									End Site
									{
										OFFSET 0.000000 8.688499 0.000000
									}
								}
							}
							JOINT newVegas:Right_Sleeve
							{
								OFFSET -0.267448 -0.649994 0.577675
								CHANNELS 3 Xrotation Yrotation Zrotation
								End Site
								{
									OFFSET 0.000000 15.991302 0.000000
								}
							}
						}
						JOINT newVegas:Right_CapeA
						{
							OFFSET -5.115540 -8.608795 -10.395824
							CHANNELS 3 Xrotation Yrotation Zrotation
							JOINT newVegas:Right_CapeA1
							{
								OFFSET 0.000000 -8.688499 0.000000
								CHANNELS 3 Xrotation Yrotation Zrotation
								End Site
								{
									OFFSET 0.000000 8.688499 0.000000
								}
							}
						}
						JOINT newVegas:Right_CapeB
						{
							OFFSET -26.118187 -8.608795 -7.079266
							CHANNELS 3 Xrotation Yrotation Zrotation
							JOINT newVegas:Right_CapeB1
							{
								OFFSET 0.000000 -8.688499 0.000000
								CHANNELS 3 Xrotation Yrotation Zrotation
								End Site
								{
									OFFSET 0.000000 8.688499 0.000000
								}
							}
						}
					}
				}
				JOINT newVegas:Left_Collar
				{
					OFFSET 18.625099 8.655502 8.828100
					CHANNELS 3 Xrotation Yrotation Zrotation
					JOINT newVegas:Left_Collar1
					{
						OFFSET 14.783401 10.540405 -1.259500
						CHANNELS 3 Xrotation Yrotation Zrotation
						End Site
						{
							OFFSET 0.000000 18.199875 0.000000
						}
					}
				}
				JOINT newVegas:Collar_Back
				{
					OFFSET 0.000000 15.630707 -20.132601
					CHANNELS 3 Xrotation Yrotation Zrotation
					End Site
					{
						OFFSET 0.000000 22.523010 0.000000
					}
				}
				JOINT newVegas:Left_Peck
				{
					OFFSET 17.239599 -5.132599 25.482599
					CHANNELS 3 Xrotation Yrotation Zrotation
					End Site
					{
						OFFSET 0.000000 22.523010 0.000000
					}
				}
				JOINT newVegas:Right_Peck
				{
					OFFSET -17.239599 -5.132202 25.482599
					CHANNELS 3 Xrotation Yrotation Zrotation
					End Site
					{
						OFFSET 0.000000 22.523010 0.000000
					}
				}
				JOINT newVegas:Right_Collar
				{
					OFFSET -18.625099 8.655792 8.828100
					CHANNELS 3 Xrotation Yrotation Zrotation
					JOINT newVegas:Right_Collar1
					{
						OFFSET -14.783401 10.539993 -1.259500
						CHANNELS 3 Xrotation Yrotation Zrotation
						End Site
						{
							OFFSET 0.000000 18.199631 0.000000
						}
					}
				}
			}
		}
		JOINT newVegas:Belly
		{
			OFFSET 0.000000 -6.540398 9.014299
			CHANNELS 3 Xrotation Yrotation Zrotation
			End Site
			{
				OFFSET 0.000000 11.566666 0.000000
			}
		}
	}
	JOINT newVegas:ElvisFacialAnim_Joint
	{
		OFFSET 1.000000 -95.330101 -8.825800
		CHANNELS 3 Xrotation Yrotation Zrotation
		End Site
		{
			OFFSET 0.000000 35.315800 0.000000
		}
	}
}
MOTION
Frames: 4
Frame Time: 0.033333
-5.568497 69.276718 3.265045 -28.523312 -15.003714 -20.976638 -0.000001 -0.000000 -0.000001 -47.081556 3.406947 -12.429570 34.849100 1.142507 -3.693077 48.570851 11.554518 20.002202 0.000000 0.000001 -0.000000 0.000002 -0.000001 -0.000003 -7.695954 -11.493719 -20.828676 91.397411 9.595647 1.491590 2.823602 1.129718 22.270843 0.000002 0.000003 -0.000001 0.000000 -0.000001 -0.000000 14.159204 10.989506 -3.461692 1.361570 2.848196 0.144737 1.380797 2.822179 0.114125 1.392096 -0.770337 0.087956 1.392099 -0.770341 0.087950 -0.000000 0.000000 0.000001 1.392098 -0.770337 0.087949 1.392226 -0.770307 0.087946 0.000000 -0.000000 0.000001 -0.000000 0.000000 0.000001 -1.207407 10.016832 0.587511 27.064741 23.642369 -19.670433 -0.000004 -41.657296 0.000006 11.614124 -15.420516 -11.100772 4.972952 -0.919236 4.455771 7.416814 13.559441 3.778472 0.000002 0.000001 0.000003 0.332631 -2.971054 -1.456190 0.830586 3.008820 -30.858265 0.000006 0.000001 0.000000 -0.686694 0.199379 -14.655424 0.595554 2.575495 -26.036353 -0.000001 0.000000 0.000000 0.933461 5.741941 -20.414006 0.491132 2.349913 -23.606382 -0.000001 0.000001 -0.000001 2.244606 16.205454 -22.664101 0.579241 2.541850 -25.670853 -0.000001 -0.000003 -0.000000 0.000001 0.000000 0.000001 0.000001 0.000000 0.000001 0.000001 -0.000000 0.000001 0.000000 0.000001 0.000004 0.000000 0.000001 0.000003 0.000000 0.000001 0.000004 0.000000 0.000001 0.000005 0.762539 3.727270 -4.466195 29.875705 -12.125878 12.718228 0.000011 44.709896 -0.000004 26.393748 4.978956 32.614256 3.998971 2.832316 -3.864439 7.802576 -15.416791 -4.481847 0.000001 -0.000002 0.000003 0.387329 3.131516 0.644095 0.662454 -2.396007 30.906630 0.000001 0.000004 0.000002 -0.709917 0.247546 13.910237 0.475084 -2.051025 26.079662 -0.000000 0.000001 -0.000000 0.807600 -5.199883 19.769378 0.391788 -1.871433 23.646677 -0.000001 -0.000003 -0.000000 1.997355 -15.634337 22.197604 0.462053 -2.024254 25.713757 0.000000 0.000002 -0.000001 -0.000001 -0.000001 -0.000001 -0.000002 -0.000003 0.000001 -0.000001 -0.000001 0.000000 -0.000001 0.000001 0.000000 -0.000001 0.000002 0.000001 -0.000001 0.000001 0.000000 -0.000001 0.000002 0.000001 -0.000000 -0.000000 0.000001 -0.000000 -0.000000 0.000001 -0.000000 -0.000000 0.000001 -0.000000 -0.000000 0.000001 -0.000000 -0.000000 0.000001 -0.000000 -0.000000 0.000001 -0.000000 -0.000000 0.000001 0.000000 -0.000000 -0.000002 -0.000001 -0.000000 -0.000001 
-2.972347 73.221931 5.676043 -24.674965 -18.012607 -20.332015 -0.000000 0.000000 0.000000 -43.067765 1.187942 -10.839729 25.154813 1.295841 -4.227894 45.546430 10.254867 16.736180 0.000000 -0.000000 0.000000 -0.000001 0.000003 0.000000 -2.285630 -14.985932 -15.190942 87.100949 8.046368 0.688686 -28.867986 9.792961 8.229412 -0.000002 0.000001 -0.000001 0.000000 0.000001 -0.000000 12.246197 10.240271 -3.007411 0.953981 2.728353 0.079045 0.970232 2.710854 0.056879 1.343473 -0.493343 0.089711 1.343470 -0.493344 0.089708 -0.000000 -0.000001 0.000000 1.343476 -0.493352 0.089703 1.343624 -0.493355 0.089712 0.000000 -0.000001 0.000002 -0.000000 -0.000001 -0.000001 -0.716332 7.966522 -0.341956 29.765199 19.236367 -21.102518 -0.000009 -52.753987 -0.000001 25.356048 -7.054956 -8.648964 3.391955 -1.018062 2.726171 7.547792 15.613372 3.984649 -0.000000 0.000000 -0.000003 0.298047 -2.504097 -4.583123 0.962329 3.218737 -33.283092 -0.000002 0.000001 -0.000000 -0.738255 0.689282 -17.514225 0.804755 2.965200 -30.362547 0.000005 -0.000001 0.000001 1.081739 5.926077 -23.238628 0.763465 2.893627 -29.554338 -0.000001 -0.000001 0.000001 2.382779 16.160115 -26.030211 0.862951 3.062230 -31.469386 0.000001 -0.000007 0.000002 0.000001 -0.000000 0.000005 0.000001 -0.000000 0.000005 0.000001 0.000000 0.000005 -0.000001 0.000001 -0.000001 -0.000001 0.000000 0.000000 -0.000001 0.000001 -0.000001 -0.000001 0.000000 -0.000000 0.501213 5.264634 -1.028501 28.555844 -9.891513 15.187670 0.000006 62.614817 0.000002 34.870937 -2.794727 31.542428 1.930435 2.970793 -1.665773 7.925180 -18.026590 -4.718775 -0.000000 -0.000003 0.000002 0.329397 2.613403 4.777123 0.801711 -2.614407 34.092070 0.000001 -0.000001 0.000001 -0.802937 -0.312254 17.677651 0.695140 -2.449664 31.679285 0.000000 -0.000005 0.000000 0.970313 -5.370031 23.422787 0.679221 -2.423730 31.305038 0.000001 0.000001 0.000001 2.131510 -15.502253 26.437793 0.760672 -2.552779 33.181578 -0.000000 -0.000000 0.000002 -0.000003 0.000003 0.000000 -0.000002 0.000002 0.000000 -0.000003 0.000002 0.000000 -0.000000 0.000000 0.000000 -0.000000 0.000000 0.000001 -0.000000 0.000000 0.000000 -0.000000 -0.000000 0.000001 0.000000 -0.000001 -0.000000 0.000000 -0.000001 -0.000000 0.000000 -0.000001 -0.000000 0.000000 -0.000001 -0.000000 0.000000 -0.000001 -0.000000 0.000000 -0.000001 -0.000000 0.000000 -0.000001 -0.000000 0.000001 0.000001 -0.000001 -0.000000 0.000000 0.000000 
-0.499098 77.212265 6.621113 -19.974712 -19.599153 -19.072781 -0.000000 0.000002 -0.000000 -45.019652 -0.236359 -7.168757 26.882892 2.379877 -4.016786 38.592864 6.517786 5.510691 0.000001 0.000001 -0.000001 -0.000002 0.000001 0.000002 0.903741 -15.154110 -11.736345 73.043266 7.086169 0.395886 -35.533308 15.156658 7.500222 -0.000000 -0.000000 -0.000001 -0.000002 0.000002 -0.000003 11.016812 9.211222 -2.530468 0.656588 2.494996 0.188790 0.672735 2.478735 0.174385 1.202463 -0.190714 0.084422 1.202429 -0.190718 0.084420 -0.000000 -0.000001 0.000002 1.202591 -0.190703 0.084413 1.202467 -0.190684 0.084410 -0.000000 -0.000000 0.000001 -0.000000 -0.000001 0.000002 -0.165459 5.521179 -1.624858 32.704927 14.831360 -23.149220 -0.000030 -66.152991 -0.000021 29.857151 3.346614 -7.625156 1.690190 -1.047149 0.796743 7.685325 17.875502 4.214946 -0.000001 -0.000003 -0.000007 0.298757 -2.004313 -8.029316 1.117535 3.443197 -35.953808 0.000002 0.000002 -0.000001 -0.757664 1.228156 -20.664196 1.068600 3.374802 -35.131061 0.000000 -0.000001 0.000002 1.252266 6.121708 -26.351638 1.127068 3.456279 -36.112252 -0.000001 -0.000001 0.000001 2.516952 16.147961 -29.739491 1.234774 3.598992 -37.862614 0.000003 -0.000007 -0.000000 -0.000000 -0.000002 -0.000000 -0.000000 -0.000002 -0.000000 0.000000 -0.000001 0.000000 0.000001 -0.000003 0.000001 0.000001 -0.000003 -0.000001 0.000001 -0.000003 0.000001 0.000001 -0.000003 0.000001 0.687714 7.518408 -0.106894 27.695708 -4.626162 18.552324 0.000052 79.449683 -0.000043 46.322411 -5.730786 31.932278 -0.265389 2.997857 0.775920 8.049130 -20.876381 -4.985079 -0.000000 0.000002 -0.000000 0.320296 2.065579 9.378779 0.970452 -2.847590 37.632454 -0.000001 -0.000004 0.000001 -0.849333 -0.930807 21.865032 0.981753 -2.862104 37.858721 -0.000001 -0.000001 0.000000 1.157238 -5.548578 27.453792 1.077425 -2.980999 39.736015 0.000003 -0.000003 -0.000002 2.243882 -15.420510 31.061959 1.165664 -3.083926 41.404351 -0.000002 0.000003 -0.000003 -0.000000 -0.000001 -0.000000 -0.000000 -0.000001 0.000001 -0.000001 -0.000001 -0.000002 -0.000000 0.000000 -0.000000 -0.000000 0.000000 -0.000000 -0.000000 0.000000 -0.000000 -0.000000 -0.000000 0.000000 -0.000000 0.000000 0.000001 -0.000000 0.000000 0.000001 -0.000000 0.000000 0.000001 -0.000000 0.000000 0.000001 -0.000000 0.000000 0.000001 -0.000000 0.000000 0.000001 -0.000000 0.000000 0.000001 -0.000000 0.000001 0.000000 -0.000000 0.000002 -0.000000 
1.554060 80.381935 5.962232 -15.238811 -19.508139 -17.341027 0.000001 -0.000001 -0.000000 -48.560729 -0.778648 -6.063427 34.870394 2.972499 -3.860163 26.652271 4.238935 0.760976 -0.000000 -0.000002 0.000001 -0.000000 0.000000 0.000001 1.844505 -14.746047 -8.796325 60.475014 6.688236 0.390759 -35.706159 17.296781 8.352060 0.000001 -0.000003 0.000000 0.000002 0.000000 0.000001 10.717181 7.971070 -2.091867 0.526211 2.159210 0.380123 0.543028 2.138792 0.371921 0.997706 0.118453 0.092949 0.997714 0.118449 0.092934 -0.000000 0.000000 -0.000000 0.997851 0.118442 0.092946 0.997556 0.118429 0.092948 0.000000 0.000000 0.000001 -0.000000 0.000000 0.000001 0.375515 2.498394 -3.438901 34.792051 9.918255 -25.361001 -0.000027 -78.920425 -0.000036 29.554826 11.012282 -6.640193 -0.050820 -0.988843 -1.256434 7.822333 20.255570 4.461526 -0.000000 -0.000004 -0.000007 0.341259 -1.498187 -11.658094 1.292034 3.671327 -38.765866 0.000001 0.000002 0.000000 -0.736106 1.791427 -23.980569 1.382211 3.780648 -40.153477 0.000001 -0.000001 -0.000000 1.439524 6.319179 -29.629128 1.576846 3.999452 -43.021572 -0.000000 -0.000001 0.000004 2.644255 16.180146 -33.645222 1.688418 4.115453 -44.598379 0.000001 -0.000002 -0.000002 -0.000002 0.000001 -0.000000 -0.000002 0.000001 -0.000000 -0.000003 0.000001 -0.000000 0.000001 0.000001 0.000001 0.000000 0.000001 0.000000 0.000001 0.000001 0.000001 -0.000001 -0.000000 0.000001 0.971112 9.565207 0.135936 27.616760 1.408528 23.915948 0.000068 93.096940 -0.000095 49.029581 -7.947925 29.792141 -2.309097 2.902390 3.157461 8.158214 -23.617981 -5.249881 0.000001 -0.000001 -0.000002 0.366529 1.569748 13.782336 1.145204 -3.060544 41.021696 -0.000001 0.000001 -0.000003 -0.836564 -1.519302 25.873310 1.297029 -3.226562 43.790347 -0.000002 -0.000001 0.000002 1.342917 -5.709660 31.321769 1.533029 -3.455562 47.837996 0.000001 0.000001 -0.000001 2.329704 -15.408251 35.517899 1.622500 -3.534345 49.305677 0.000003 0.000002 -0.000000 -0.000000 -0.000000 0.000001 -0.000000 0.000000 0.000003 -0.000000 -0.000000 0.000001 -0.000001 0.000001 0.000001 -0.000001 0.000001 0.000001 -0.000001 0.000001 0.000001 -0.000001 0.000001 0.000001 0.000000 -0.000001 -0.000000 0.000000 -0.000001 -0.000000 0.000000 -0.000001 -0.000000 0.000000 -0.000001 -0.000000 0.000000 -0.000001 -0.000000 0.000000 -0.000001 -0.000000 0.000000 -0.000001 -0.000000 -0.000000 0.000001 -0.000000 0.000001 -0.000001 -0.000000 
